# xmcd
#
# Track frame offsets:
#	150
#	23925
#	43770
#	61625
#	74452
#	87537
#	98937
#	105950
#	116622
#	130560
#
# Disc length: 1954 seconds
#
# Revision: 2
# Processed by: cddbd v1.4PL0 Copyright (c) Steve Scherf et al.
# Submitted via: CDmax 1.8
#
DISCID=7e07a00a
DTITLE=Various Artist - New Country Holiday Special 1996
DYEAR=1996
DGENRE=Country
TTITLE0=John Berry - O Holy Night
TTITLE1=Chris Thile with Scott Nygaard - Bring a Torch, Jeannette Isabella
TTITLE2=Shenandoah - O Come All Ye Faithful
TTITLE3=An Americana Christmas - Angels From the Realms of Glory
TTITLE4=Kenny Rogers - Sweet Little Jesus Boy
TTITLE5=The Lonesome River Band - All I Want Is Mary for Christmas
TTITLE6=Riders In The Sky - Christmas at the Triple X Ranch
TTITLE7=The Bobs - Fifty Kilowatt Tree
TTITLE8=The Blue Hawaiians - Jungle Bells
TTITLE9=Judy Polan - Auld Lang Syne
EXTD=
EXTT0=
EXTT1=
EXTT2=
EXTT3=
EXTT4=
EXTT5=
EXTT6=
EXTT7=
EXTT8=
EXTT9=
PLAYORDER=
